HIERARCHY
ROOT Root
{
	OFFSET 0.00000 0.00000 0.00000
	CHANNELS 6 Xposition Yposition Zposition Zrotation Xrotation Yrotation
	JOINT Hip
	{
		OFFSET 0 0 0	
		CHANNELS 3 Zrotation Xrotation Yrotation
		JOINT Tummy
		{
			OFFSET 0 0.04 0	
			CHANNELS 3 Zrotation Xrotation Yrotation
			JOINT ChestBottom
			{
				OFFSET 0 0.194 0	
				CHANNELS 3 Zrotation Xrotation Yrotation
				JOINT ChestTop
				{
					OFFSET 0 0.166 0	
					CHANNELS 3 Zrotation Xrotation Yrotation
					JOINT LeftCollar
					{
						OFFSET 0 0.1 0	
						CHANNELS 3 Zrotation Xrotation Yrotation
						JOINT LeftUpperArm
						{
							OFFSET 0.156 -0.02 0.03	
							CHANNELS 3 Zrotation Xrotation Yrotation
							JOINT LeftForeArm
							{
								OFFSET 0.035 -0.27 -0.01	
								CHANNELS 3 Zrotation Xrotation Yrotation
								JOINT LeftHand
								{
									OFFSET 0.01 -0.27 0.01	
									CHANNELS 3 Zrotation Xrotation Yrotation
									End Site
									{
										OFFSET 0 -0.15 0
									}
								}
							}
						}
					}
					JOINT RightCollar
					{
						OFFSET 0 0.1 0	
						CHANNELS 3 Zrotation Xrotation Yrotation
						JOINT RightUpperArm
						{
							OFFSET -0.156 -0.02 0.03	
							CHANNELS 3 Zrotation Xrotation Yrotation
							JOINT RightForeArm
							{
								OFFSET -0.035 -0.27 -0.01	
								CHANNELS 3 Zrotation Xrotation Yrotation
								JOINT RightHand
								{
									OFFSET -0.01 -0.27 0.01	
									CHANNELS 3 Zrotation Xrotation Yrotation
									End Site
									{
										OFFSET 0 -0.15 0
									}
								}
							}
						}
					}
					JOINT Neck
					{
						OFFSET 0 0.1 0	
						CHANNELS 3 Zrotation Xrotation Yrotation
						JOINT Head
						{
							OFFSET 0 0.127 0.03	
							CHANNELS 3 Zrotation Xrotation Yrotation
							End Site
							{
								OFFSET 0 0.127 0.03
							}
						}
					}
				}
			}
		}
	}
	JOINT LeftHip
	{
		OFFSET 0 0 0	
		CHANNELS 3 Zrotation Xrotation Yrotation
		JOINT LeftThigh
		{
			OFFSET 0.088 -0.06 0	
			CHANNELS 3 Zrotation Xrotation Yrotation
			JOINT LeftLowerLeg
			{
				OFFSET 0 -0.39 0.02	
				CHANNELS 3 Zrotation Xrotation Yrotation
				JOINT LeftFootTop
				{
					OFFSET 0 -0.43 -0.02	
					CHANNELS 3 Zrotation Xrotation Yrotation
					JOINT LeftFootFront
					{
						OFFSET 0 -0.07 0.085	
						CHANNELS 3 Zrotation Xrotation Yrotation
						End Site
						{
							OFFSET 0 -0.005 0.09
						}
					}
				}
				JOINT LeftHeel
				{
					OFFSET 0 -0.43 -0.02	
					CHANNELS 3 Zrotation Xrotation Yrotation
					End Site
					{
						OFFSET 0 -0.075 -0.05
					}
				}
			}
		}
	}
	JOINT RightHip
	{
		OFFSET 0 0 0	
		CHANNELS 3 Zrotation Xrotation Yrotation
		JOINT RightThigh
		{
			OFFSET -0.088 -0.06 0	
			CHANNELS 3 Zrotation Xrotation Yrotation
			JOINT RightLowerLeg
			{
				OFFSET 0 -0.39 0.02	
				CHANNELS 3 Zrotation Xrotation Yrotation
				JOINT RightFootTop
				{
					OFFSET 0 -0.43 -0.02	
					CHANNELS 3 Zrotation Xrotation Yrotation
					JOINT RightFootFront
					{
						OFFSET 0 -0.07 0.085	
						CHANNELS 3 Zrotation Xrotation Yrotation
						End Site
						{
							OFFSET 0 -0.005 0.09
						}
					}
				}
				JOINT RightHeel
				{
					OFFSET 0 -0.43 -0.02	
					CHANNELS 3 Zrotation Xrotation Yrotation
					End Site
					{
						OFFSET 0 -0.075 -0.05
					}
				}
			}
		}
	}
}
MOTION
Frames: 30
Frame Time: 0.05
0 0.955 0 -0 0 -0 -0 0 -0 -0 0 -0 -21.91 30.912 48.128 -0 0 -0 -0 0 -0 -18.819 -59.234 -52.509 -91.299 -36.111 -32.876 -0 0 -0 -0 0 -0 11.305 -64.211 50.09 132.8 -17.649 49.751 -0 0 -0 -6.0964 -24.228 20.275 -6.0964 -24.228 20.275 -0 0 -0 -0 0 -0 -0 0 -0 -0 0 -0 -0 0 -0 -0 0 -0 -0 0 -0 -0 0 -0 -0 0 -0 -0 0 -0 -0 0 -0 -0 0 -0 
0 0.955 0 -0 0 -0 -0 0 -0 -0 0 -0 -22.241 30.973 48.323 -0 0 -0 -0 0 -0 -19.277 -59.464 -53.198 -91.043 -36.236 -32.623 -0 0 -0 -0 0 -0 11.582 -64.464 50.193 132.89 -17.57 49.422 -0 0 -0 -5.9159 -24.429 20.316 -5.9159 -24.429 20.316 -0 0 -0 -0 0 -0 -0 0 -0 -0 0 -0 -0 0 -0 -0 0 -0 -0 0 -0 -0 0 -0 -0 0 -0 -0 0 -0 -0 0 -0 -0 0 -0 
0 0.955 0 -0 0 -0 -0 0 -0 -0 0 -0 -22.467 31.1 48.38 -0 0 -0 -0 0 -0 -19.697 -59.669 -53.719 -90.789 -36.363 -32.378 -0 0 -0 -0 0 -0 11.785 -64.675 50.264 132.88 -17.498 49.107 -0 0 -0 -5.6112 -24.694 20.47 -5.6112 -24.694 20.47 -0 0 -0 -0 0 -0 -0 0 -0 -0 0 -0 -0 0 -0 -0 0 -0 -0 0 -0 -0 0 -0 -0 0 -0 -0 0 -0 -0 0 -0 -0 0 -0 
0 0.955 0 -0 0 -0 -0 0 -0 -0 0 -0 -22.613 31.161 48.405 -0 0 -0 -0 0 -0 -20.052 -59.798 -54.194 -90.558 -36.506 -32.182 -0 0 -0 -0 0 -0 11.714 -64.817 50.013 132.87 -17.345 48.816 -0 0 -0 -5.2347 -24.917 20.681 -5.2347 -24.917 20.681 -0 0 -0 -0 0 -0 -0 0 -0 -0 0 -0 -0 0 -0 -0 0 -0 -0 0 -0 -0 0 -0 -0 0 -0 -0 0 -0 -0 0 -0 -0 0 -0 
0 0.955 0 -0 0 -0 -0 0 -0 -0 0 -0 -22.741 31.147 48.458 -0 0 -0 -0 0 -0 -20.35 -59.929 -54.641 -90.367 -36.623 -32.008 -0 0 -0 -0 0 -0 11.548 -64.955 49.646 133.01 -17.066 48.402 -0 0 -0 -4.8904 -25.028 20.883 -4.8904 -25.028 20.883 -0 0 -0 -0 0 -0 -0 0 -0 -0 0 -0 -0 0 -0 -0 0 -0 -0 0 -0 -0 0 -0 -0 0 -0 -0 0 -0 -0 0 -0 -0 0 -0 
0 0.955 0 -0 0 -0 -0 0 -0 -0 0 -0 -22.969 31.278 48.58 -0 0 -0 -0 0 -0 -20.705 -60.232 -55.114 -90.258 -36.723 -31.932 -0 0 -0 -0 0 -0 11.467 -65.29 49.421 133.36 -16.827 48.26 -0 0 -0 -4.659 -25.192 21.1 -4.659 -25.192 21.1 -0 0 -0 -0 0 -0 -0 0 -0 -0 0 -0 -0 0 -0 -0 0 -0 -0 0 -0 -0 0 -0 -0 0 -0 -0 0 -0 -0 0 -0 -0 0 -0 
0 0.955 0 -0 0 -0 -0 0 -0 -0 0 -0 -23.286 31.518 48.673 -0 0 -0 -0 0 -0 -20.87 -60.645 -55.367 -90.233 -36.812 -31.933 -0 0 -0 -0 0 -0 11.732 -65.751 49.5 133.85 -16.796 48.512 -0 0 -0 -4.4604 -25.451 21.375 -4.4604 -25.451 21.375 -0 0 -0 -0 0 -0 -0 0 -0 -0 0 -0 -0 0 -0 -0 0 -0 -0 0 -0 -0 0 -0 -0 0 -0 -0 0 -0 -0 0 -0 -0 0 -0 
0 0.955 0 -0 0 -0 -0 0 -0 -0 0 -0 -23.667 31.786 48.919 -0 0 -0 -0 0 -0 -21.109 -60.967 -55.788 -90.255 -36.925 -32.017 -0 0 -0 -0 0 -0 12.048 -66.3 49.386 134.23 -16.776 48.717 -0 0 -0 -4.218 -25.779 21.557 -4.218 -25.779 21.557 -0 0 -0 -0 0 -0 -0 0 -0 -0 0 -0 -0 0 -0 -0 0 -0 -0 0 -0 -0 0 -0 -0 0 -0 -0 0 -0 -0 0 -0 -0 0 -0 
0 0.955 0 -0 0 -0 -0 0 -0 -0 0 -0 -23.939 32.042 49.153 -0 0 -0 -0 0 -0 -21.308 -61.165 -56.159 -90.328 -37.067 -32.142 -0 0 -0 -0 0 -0 12.3 -66.759 49.117 134.36 -16.417 48.297 -0 0 -0 -3.8783 -26.054 21.711 -3.8783 -26.054 21.71 -0 0 -0 -0 0 -0 -0 0 -0 -0 0 -0 -0 0 -0 -0 0 -0 -0 0 -0 -0 0 -0 -0 0 -0 -0 0 -0 -0 0 -0 -0 0 -0 
0 0.955 0 -0 0 -0 -0 0 -0 -0 0 -0 -24.117 32.236 49.328 -0 0 -0 -0 0 -0 -21.3 -61.263 -56.295 -90.444 -37.189 -32.315 -0 0 -0 -0 0 -0 12.402 -67.083 48.865 134.49 -15.975 47.752 -0 0 -0 -3.5253 -26.247 21.845 -3.5253 -26.247 21.845 -0 0 -0 -0 0 -0 -0 0 -0 -0 0 -0 -0 0 -0 -0 0 -0 -0 0 -0 -0 0 -0 -0 0 -0 -0 0 -0 -0 0 -0 -0 0 -0 
0 0.955 0 -0 0 -0 -0 0 -0 -0 0 -0 -24.23 32.513 49.398 -0 0 -0 -0 0 -0 -21.228 -61.38 -56.186 -90.569 -37.224 -32.525 -0 0 -0 -0 0 -0 12.407 -67.389 48.853 134.7 -15.784 47.575 -0 0 -0 -3.2135 -26.415 21.973 -3.2135 -26.415 21.973 -0 0 -0 -0 0 -0 -0 0 -0 -0 0 -0 -0 0 -0 -0 0 -0 -0 0 -0 -0 0 -0 -0 0 -0 -0 0 -0 -0 0 -0 -0 0 -0 
0 0.955 0 -0 0 -0 -0 0 -0 -0 0 -0 -24.299 32.792 49.444 -0 0 -0 -0 0 -0 -21.107 -61.467 -56.018 -90.748 -37.273 -32.826 -0 0 -0 -0 0 -0 12.3 -67.642 48.81 134.9 -15.714 47.519 -0 0 -0 -2.9745 -26.539 22.058 -2.9745 -26.539 22.058 -0 0 -0 -0 0 -0 -0 0 -0 -0 0 -0 -0 0 -0 -0 0 -0 -0 0 -0 -0 0 -0 -0 0 -0 -0 0 -0 -0 0 -0 -0 0 -0 
0 0.955 0 -0 0 -0 -0 0 -0 -0 0 -0 -24.426 33.131 49.532 -0 0 -0 -0 0 -0 -21.073 -61.642 -55.891 -90.948 -37.285 -33.131 -0 0 -0 -0 0 -0 12.223 -67.943 48.778 135.01 -15.682 47.57 -0 0 -0 -2.7824 -26.683 22.136 -2.7824 -26.683 22.136 -0 0 -0 -0 0 -0 -0 0 -0 -0 0 -0 -0 0 -0 -0 0 -0 -0 0 -0 -0 0 -0 -0 0 -0 -0 0 -0 -0 0 -0 -0 0 -0 
0 0.955 0 -0 0 -0 -0 0 -0 -0 0 -0 -24.585 33.471 49.647 -0 0 -0 -0 0 -0 -21.053 -61.831 -55.796 -91.132 -37.286 -33.417 -0 0 -0 -0 0 -0 12.117 -68.279 48.734 135.08 -15.752 47.718 -0 0 -0 -2.574 -26.824 22.219 -2.574 -26.824 22.218 -0 0 -0 -0 0 -0 -0 0 -0 -0 0 -0 -0 0 -0 -0 0 -0 -0 0 -0 -0 0 -0 -0 0 -0 -0 0 -0 -0 0 -0 -0 0 -0 
0 0.955 0 -0 0 -0 -0 0 -0 -0 0 -0 -24.733 33.835 49.737 -0 0 -0 -0 0 -0 -21.093 -62.018 -55.754 -91.28 -37.321 -33.708 -0 0 -0 -0 0 -0 11.965 -68.625 48.756 135.22 -15.953 48.102 -0 0 -0 -2.3218 -26.933 22.312 -2.3218 -26.933 22.312 -0 0 -0 -0 0 -0 -0 0 -0 -0 0 -0 -0 0 -0 -0 0 -0 -0 0 -0 -0 0 -0 -0 0 -0 -0 0 -0 -0 0 -0 -0 0 -0 
0 0.955 0 -0 0 -0 -0 0 -0 -0 0 -0 -24.963 34.257 49.874 -0 0 -0 -0 0 -0 -21.189 -62.307 -55.786 -91.481 -37.356 -33.967 -0 0 -0 -0 0 -0 11.852 -69.069 48.827 135.26 -16.217 48.538 -0 0 -0 -1.9678 -27.072 22.445 -1.9678 -27.072 22.445 -0 0 -0 -0 0 -0 -0 0 -0 -0 0 -0 -0 0 -0 -0 0 -0 -0 0 -0 -0 0 -0 -0 0 -0 -0 0 -0 -0 0 -0 -0 0 -0 
0 0.955 0 -0 0 -0 -0 0 -0 -0 0 -0 -25.213 34.727 50.029 -0 0 -0 -0 0 -0 -21.357 -62.648 -55.869 -91.711 -37.394 -34.207 -0 0 -0 -0 0 -0 11.631 -69.608 48.84 135.2 -16.406 48.775 -0 0 -0 -1.4954 -27.211 22.681 -1.4954 -27.211 22.681 -0 0 -0 -0 0 -0 -0 0 -0 -0 0 -0 -0 0 -0 -0 0 -0 -0 0 -0 -0 0 -0 -0 0 -0 -0 0 -0 -0 0 -0 -0 0 -0 
0 0.955 0 -0 0 -0 -0 0 -0 -0 0 -0 -25.461 35.085 50.221 -0 0 -0 -0 0 -0 -21.495 -62.947 -56.059 -91.91 -37.501 -34.428 -0 0 -0 -0 0 -0 11.161 -70.138 48.667 134.92 -16.488 48.737 -0 0 -0 -0.88053 -27.31 22.99 -0.88052 -27.31 22.99 -0 0 -0 -0 0 -0 -0 0 -0 -0 0 -0 -0 0 -0 -0 0 -0 -0 0 -0 -0 0 -0 -0 0 -0 -0 0 -0 -0 0 -0 -0 0 -0 
0 0.955 0 -0 0 -0 -0 0 -0 -0 0 -0 -25.732 35.286 50.459 -0 0 -0 -0 0 -0 -21.554 -63.128 -56.341 -92.052 -37.661 -34.617 -0 0 -0 -0 0 -0 10.438 -70.624 48.354 134.8 -16.646 48.709 -0 0 -0 -0.23245 -27.367 23.232 -0.23244 -27.367 23.232 -0 0 -0 -0 0 -0 -0 0 -0 -0 0 -0 -0 0 -0 -0 0 -0 -0 0 -0 -0 0 -0 -0 0 -0 -0 0 -0 -0 0 -0 -0 0 -0 
0 0.955 0 -0 0 -0 -0 0 -0 -0 0 -0 -25.91 35.448 50.691 -0 0 -0 -0 0 -0 -21.802 -63.22 -56.74 -92.109 -37.783 -34.741 -0 0 -0 -0 0 -0 9.4719 -71.046 47.899 134.84 -16.896 48.933 -0 0 -0 0.27499 -27.447 23.35 0.27498 -27.447 23.35 -0 0 -0 -0 0 -0 -0 0 -0 -0 0 -0 -0 0 -0 -0 0 -0 -0 0 -0 -0 0 -0 -0 0 -0 -0 0 -0 -0 0 -0 -0 0 -0 
0 0.955 0 -0 0 -0 -0 0 -0 -0 0 -0 -26.159 35.595 50.912 -0 0 -0 -0 0 -0 -22.039 -63.42 -57.133 -92.131 -37.882 -34.791 -0 0 -0 -0 0 -0 9.0365 -71.441 47.745 134.86 -17.145 49.144 -0 0 -0 0.64439 -27.606 23.379 0.6444 -27.606 23.379 -0 0 -0 -0 0 -0 -0 0 -0 -0 0 -0 -0 0 -0 -0 0 -0 -0 0 -0 -0 0 -0 -0 0 -0 -0 0 -0 -0 0 -0 -0 0 -0 
0 0.955 0 -0 0 -0 -0 0 -0 -0 0 -0 -26.517 35.704 51.338 -0 0 -0 -0 0 -0 -22.602 -63.654 -57.921 -92.143 -37.955 -34.807 -0 0 -0 -0 0 -0 8.2637 -71.857 47.069 134.9 -17.357 49.387 -0 0 -0 0.83844 -27.827 23.262 0.83844 -27.827 23.262 -0 0 -0 -0 0 -0 -0 0 -0 -0 0 -0 -0 0 -0 -0 0 -0 -0 0 -0 -0 0 -0 -0 0 -0 -0 0 -0 -0 0 -0 -0 0 -0 
0 0.955 0 -0 0 -0 -0 0 -0 -0 0 -0 -26.911 35.854 51.805 -0 0 -0 -0 0 -0 -23.364 -63.956 -58.915 -92.122 -38.046 -34.772 -0 0 -0 -0 0 -0 7.4905 -72.291 46.298 134.91 -17.491 49.641 -0 0 -0 0.95272 -28.064 23.18 0.95273 -28.064 23.18 -0 0 -0 -0 0 -0 -0 0 -0 -0 0 -0 -0 0 -0 -0 0 -0 -0 0 -0 -0 0 -0 -0 0 -0 -0 0 -0 -0 0 -0 -0 0 -0 
0 0.955 0 -0 0 -0 -0 0 -0 -0 0 -0 -27.516 36.142 52.452 -0 0 -0 -0 0 -0 -24.41 -64.513 -60.285 -92.169 -38.207 -34.747 -0 0 -0 -0 0 -0 6.4677 -72.952 45.26 134.93 -17.563 49.846 -0 0 -0 1.0051 -28.374 23.127 1.0051 -28.374 23.127 -0 0 -0 -0 0 -0 -0 0 -0 -0 0 -0 -0 0 -0 -0 0 -0 -0 0 -0 -0 0 -0 -0 0 -0 -0 0 -0 -0 0 -0 -0 0 -0 
0 0.955 0 -0 0 -0 -0 0 -0 -0 0 -0 -28.303 36.473 53.146 -0 0 -0 -0 0 -0 -25.536 -65.328 -61.739 -92.249 -38.338 -34.663 -0 0 -0 -0 0 -0 5.5661 -73.774 44.344 134.86 -17.564 49.922 -0 0 -0 1.0964 -28.678 23.117 1.0964 -28.678 23.117 -0 0 -0 -0 0 -0 -0 0 -0 -0 0 -0 -0 0 -0 -0 0 -0 -0 0 -0 -0 0 -0 -0 0 -0 -0 0 -0 -0 0 -0 -0 0 -0 
0 0.955 0 -0 0 -0 -0 0 -0 -0 0 -0 -28.966 36.762 53.777 -0 0 -0 -0 0 -0 -26.751 -66.12 -63.314 -92.367 -38.552 -34.626 -0 0 -0 -0 0 -0 4.3263 -74.521 43.198 134.73 -17.491 49.923 -0 0 -0 1.1787 -28.861 23.091 1.1787 -28.861 23.091 -0 0 -0 -0 0 -0 -0 0 -0 -0 0 -0 -0 0 -0 -0 0 -0 -0 0 -0 -0 0 -0 -0 0 -0 -0 0 -0 -0 0 -0 -0 0 -0 
0 0.955 0 -0 0 -0 -0 0 -0 -0 0 -0 -29.561 37.069 54.332 -0 0 -0 -0 0 -0 -27.943 -66.91 -64.908 -92.557 -38.875 -34.685 -0 0 -0 -0 0 -0 2.9024 -75.295 42.045 134.58 -17.404 49.975 -0 0 -0 1.261 -28.991 23.073 1.261 -28.991 23.073 -0 0 -0 -0 0 -0 -0 0 -0 -0 0 -0 -0 0 -0 -0 0 -0 -0 0 -0 -0 0 -0 -0 0 -0 -0 0 -0 -0 0 -0 -0 0 -0 
0 0.955 0 -0 0 -0 -0 0 -0 -0 0 -0 -30.125 37.304 54.875 -0 0 -0 -0 0 -0 -29.106 -67.591 -66.513 -92.737 -39.192 -34.745 -0 0 -0 -0 0 -0 1.364 -76.092 40.806 134.44 -17.356 50.045 -0 0 -0 1.3835 -29.087 23.029 1.3835 -29.087 23.029 -0 0 -0 -0 0 -0 -0 0 -0 -0 0 -0 -0 0 -0 -0 0 -0 -0 0 -0 -0 0 -0 -0 0 -0 -0 0 -0 -0 0 -0 -0 0 -0 
0 0.955 0 -0 0 -0 -0 0 -0 -0 0 -0 -30.721 37.45 55.416 -0 0 -0 -0 0 -0 -30.124 -68.217 -68.063 -92.952 -39.518 -34.863 -0 0 -0 -0 0 -0 -0.043063 -76.949 39.627 134.27 -17.39 49.998 -0 0 -0 1.5178 -29.197 22.939 1.5178 -29.197 22.939 -0 0 -0 -0 0 -0 -0 0 -0 -0 0 -0 -0 0 -0 -0 0 -0 -0 0 -0 -0 0 -0 -0 0 -0 -0 0 -0 -0 0 -0 -0 0 -0 
0 0.955 0 -0 0 -0 -0 0 -0 -0 0 -0 -31.344 37.573 56.001 -0 0 -0 -0 0 -0 -31.184 -68.794 -69.675 -93.154 -39.812 -34.956 -0 0 -0 -0 0 -0 -1.3596 -77.872 38.435 134.11 -17.502 49.919 -0 0 -0 1.609 -29.352 22.803 1.609 -29.352 22.803 -0 0 -0 -0 0 -0 -0 0 -0 -0 0 -0 -0 0 -0 -0 0 -0 -0 0 -0 -0 0 -0 -0 0 -0 -0 0 -0 -0 0 -0 -0 0 -0 
